# xmcd
#
# Track frame offsets: 
#        150
#        15037
#        28001
#        38005
#
# Disc length: 657 seconds
#
# Revision: 0
# Processed by: cddbd v1.5.2PL0 Copyright (c) Steve Scherf et al.
# Submitted via: ExactAudioCopy v0.99pb4
#
DISCID=1c028f04
DTITLE=Shephard, James - Home For Christmas
DYEAR=2006
DGENRE=Christmas/Holiday
TTITLE0=Empty Chair
TTITLE1=Please Come Home For Christmas
TTITLE2=I'll Be Home For Christmas
TTITLE3=Silent Night
EXTD=
EXTT0=
EXTT1=
EXTT2=
EXTT3=
PLAYORDER=
